<svg width="72" height="39" viewBox="0 0 72 39" fill="none" xmlns="http://www.w3.org/2000/svg">
<path d="M3.80392 0.553389C3.3639 0.544717 2.9266 0.622336 2.5179 0.781648C2.1092 0.940958 1.73742 1.17872 1.4246 1.48084C1.11178 1.78296 0.864277 2.14329 0.696762 2.54049C0.529247 2.93768 0.445112 3.36365 0.449373 3.79315V34.9537C0.449373 35.8176 0.800955 36.6458 1.42676 37.2568C2.05257 37.8675 2.90135 38.2106 3.78637 38.2106C4.6714 38.2106 5.52016 37.8675 6.14597 37.2568C6.77178 36.6458 7.12337 35.8176 7.12337 34.9537V3.79315C7.12579 3.36704 7.04156 2.9447 6.8756 2.55057C6.70964 2.15644 6.46522 1.79836 6.15649 1.49705C5.84779 1.19574 5.48089 0.957189 5.07706 0.795207C4.67324 0.633228 4.2405 0.551035 3.80392 0.553389Z" fill="white"/>
<path d="M71.3294 12.643V12.5416C71.4087 9.56991 70.2776 6.68877 68.1841 4.52962C65.7556 2.18979 61.9907 0.819606 57.2334 0.819606H43.6386C43.196 0.811879 42.7565 0.891242 42.3461 1.05296C41.9356 1.21468 41.5626 1.45544 41.2496 1.76087C40.9366 2.06631 40.6896 2.43016 40.5239 2.83072C40.358 3.23129 40.2764 3.66037 40.2842 4.09233V26.2359L21.4622 2.52061C21.0853 1.94781 20.5694 1.47461 19.9602 1.14297C19.351 0.811319 18.6675 0.631462 17.9701 0.619337H17.2519C16.8102 0.614585 16.3719 0.69599 15.9629 0.858776C15.5539 1.02156 15.1823 1.26245 14.8699 1.56731C14.5576 1.87216 14.3107 2.23483 14.144 2.63404C13.9772 3.03325 13.8938 3.46096 13.8986 3.89205V34.9843C13.8986 35.8347 14.2448 36.6503 14.861 37.2517C15.4772 37.8531 16.3129 38.191 17.1843 38.191C18.0558 38.191 18.8915 37.8531 19.5077 37.2517C20.1239 36.6503 20.47 35.8347 20.47 34.9843V11.4743L40.0128 36.1568C40.6096 37.0264 41.4901 37.6737 42.5116 37.9934C42.8662 38.1001 43.235 38.1566 43.6063 38.1606C43.9926 38.165 44.3761 38.097 44.736 37.9604C45.409 37.7508 45.9951 37.3357 46.408 36.7763C46.8209 36.217 47.0389 35.5429 47.0296 34.8536V24.9671H55.3412L64.5815 36.4558C64.9326 36.9828 65.414 37.4152 65.9815 37.7127C66.549 38.0102 67.1841 38.1635 67.8283 38.1582C68.2419 38.1681 68.6537 38.0984 69.0396 37.9526C69.4257 37.8066 69.7783 37.5878 70.0771 37.3086C70.3762 37.0293 70.6156 36.695 70.7818 36.3251C70.9477 35.955 71.0374 35.5567 71.0452 35.1528C71.0044 34.2158 70.6152 33.3253 69.9502 32.6482L62.6607 23.6982C67.8048 22.1671 71.3294 18.5547 71.3294 12.643ZM64.5191 13.0106C64.5191 16.784 61.4723 19.2214 56.7152 19.2214H47.0283V6.76424H56.6452C61.5802 6.76424 64.5166 8.93551 64.5166 12.9092L64.5191 13.0106Z" fill="white"/>
</svg>
